Coordinates
version=1
nRows=14
nColumns=24
inDegrees=yes

Units are S.I. units (second, meters, Newtons, ...)
Angles are in degrees.

endheader
time	pelvis_tilt	pelvis_list	pelvis_rotation	pelvis_tx	pelvis_ty	pelvis_tz	hip_flexion_r	hip_adduction_r	hip_rotation_r	knee_angle_r	ankle_angle_r	subtalar_angle_r	mtp_angle_r	hip_flexion_l	hip_adduction_l	hip_rotation_l	knee_angle_l	ankle_angle_l	subtalar_angle_l	mtp_angle_l	lumbar_extension	lumbar_bending	lumbar_rotation
      4.09000000	    -17.94752728	     -3.25076527	     -0.31215422	     -1.25626882	     -0.00301972	     -0.26604268	     10.75410338	     10.04138477	      9.85988044	    -10.31959909	     24.59159271	     -1.04610283	    -97.83332025	     43.22878889	      0.75341170	      5.73437583	    -52.86161112	      5.02423369	     -5.18626698	    -24.13019060	     13.31785854	      1.88962669	      4.50580030
      4.09500000	    -17.97232545	     -3.10067773	     -0.58771099	     -1.24930630	     -0.00289084	     -0.26598869	      9.91945087	      9.84766947	      9.95794584	     -9.66307028	     24.41073444	     -0.82396598	    -97.75234244	     43.63585550	      0.75520655	      5.60047189	    -51.39316051	      5.16080396	     -5.13599230	    -24.38521093	     13.28700039	      1.87120234	      4.75876743
      4.10000000	    -17.84944269	     -3.00785956	     -0.81897470	     -1.24233879	     -0.00270486	     -0.26597825	      8.90313096	      9.70870520	     10.06981062	     -8.95901982	     24.08810506	     -0.74017799	    -97.44230122	     43.85401032	      0.73526925	      5.56822316	    -49.89859247	      5.45349352	     -4.96524563	    -25.32596466	     13.08410996	      1.90119833	      5.00287263
      4.10500000	    -17.94531152	     -2.83593454	     -1.16341567	     -1.23542241	     -0.00282299	     -0.26588392	      8.22071092	      9.49551240	     10.09196931	     -8.43433791	     23.98413021	     -0.38222214	    -97.41416271	     44.26907599	      0.69550967	      5.37318924	    -48.30027737	      5.37444504	     -5.03015299	    -25.59270713	     13.11795818	      1.88454290	      5.34871992
      4.11000000	    -17.91442988	     -2.67766775	     -1.45431674	     -1.22846065	     -0.00290187	     -0.26584692	      7.39325096	      9.28150200	     10.05805219	     -7.89317791	     23.87344026	     -0.03879581	    -97.39239720	     44.50268113	      0.67499541	      5.25680951	    -46.63725942	      5.30851317	     -5.02304013	    -25.87685692	     13.01397882	      1.86717295	      5.64311508
      4.11500000	    -17.89436127	     -2.52683115	     -1.73876372	     -1.22151138	     -0.00309920	     -0.26580915	      6.60308012	      9.07343285	      9.98844628	     -7.39600990	     23.78947233	      0.32932353	    -97.38636694	     44.71868423	      0.64339926	      5.16675604	    -44.92745134	      5.21581216	     -4.97641253	    -26.17835729	     12.91788953	      1.85270081	      5.92189724
      4.12000000	    -17.88004690	     -2.37620291	     -2.02210865	     -1.21456054	     -0.00339931	     -0.26577560	      5.84979160	      8.86380115	      9.87941275	     -6.95505323	     23.74153636	      0.74375035	    -97.39742844	     44.90740360	      0.60173406	      5.08796706	    -43.16870001	      5.11550080	     -4.87419367	    -26.49618464	     12.82564933	      1.83840883	      6.19660306
      4.12500000	    -17.77261253	     -2.24703515	     -2.21894094	     -1.20759609	     -0.00371559	     -0.26591243	      5.03406640	      8.65336219	      9.46594573	     -6.57826265	     23.79796934	      1.37924856	    -97.46985716	     44.96814696	      0.61719585	      5.15587092	    -41.38979531	      5.17164743	     -4.62583226	    -27.44466502	     12.62935789	      1.82856049	      6.38499525
      4.13000000	    -17.86032284	     -2.07143607	     -2.59083108	     -1.20067916	     -0.00429167	     -0.26573642	      4.46670599	      8.43988586	      9.45462736	     -6.27699199	     23.80754456	      1.76814320	    -97.51323056	     45.20022824	      0.49559542	      4.99241911	    -39.54639280	      5.08595336	     -4.39110037	    -27.79044023	     12.64294290	      1.80767036	      6.73192216
      4.13500000	    -17.79758844	     -1.90395715	     -2.86578903	     -1.19377524	     -0.00477449	     -0.26574446	      3.77072412	      8.20631436	      9.18553141	     -6.02632218	     23.88565967	      2.33031887	    -97.60064894	     45.23332241	      0.44916122	      4.97462390	    -37.65419146	      5.04929411	     -4.05246108	    -28.34598319	     12.48269094	      1.77214068	      7.04373896
      4.14000000	    -17.83283254	     -1.89096047	     -3.17980319	     -1.18675903	     -0.00568791	     -0.26537709	      3.16848176	      8.18772161	      8.99794045	     -5.76125805	     24.10647152	      2.62540931	    -99.15206194	     45.57640901	      0.13047647	      5.17271605	    -36.76418099	     16.19382841	     -0.34566435	    -79.55277611	     12.44560709	      1.86541971	      7.25586917
      4.14500000	    -17.90304310	     -1.71981451	     -3.47873015	     -1.17987966	     -0.00648516	     -0.26525667	      2.67438175	      7.97679385	      8.88832112	     -5.62406528	     24.19890149	      3.01241718	    -99.17105605	     45.70392033	      0.01492224	      5.09234231	    -34.81063730	     16.11165440	      0.08487811	    -79.57726352	     12.43190612	      1.82356664	      7.50543263
      4.15000000	    -17.94082964	     -1.54781312	     -3.75085333	     -1.17301842	     -0.00730611	     -0.26518997	      2.18555113	      7.75824593	      8.67885590	     -5.55540503	     24.33490234	      3.47835705	    -99.20434535	     45.76409546	     -0.08448303	      5.05935352	    -32.82219744	     16.05135514	      0.57408154	    -79.62692649	     12.37641796	      1.77143916	      7.74421825
      4.15500000	    -17.99206264	     -1.38145626	     -4.01041918	     -1.16617753	     -0.00820810	     -0.26515437	      1.74988705	      7.54673320	      8.43718666	     -5.55561382	     24.50030130	      3.95863483	    -99.24860481	     45.81167114	     -0.18585210	      5.05283186	    -30.80984316	     16.01335878	      1.09796625	    -79.70556390	     12.33247010	      1.72370443	      7.97161156
